<?xml version="1.0" standalone="no"?>
<!DOCTYPE svg PUBLIC "-//W3C//DTD SVG 20010904//EN"
 "http://www.w3.org/TR/2001/REC-SVG-20010904/DTD/svg10.dtd">
<svg version="1.0" xmlns="http://www.w3.org/2000/svg"
 width="290.000000pt" height="290.000000pt" viewBox="0 0 290.000000 290.000000"
 preserveAspectRatio="xMidYMid meet">
<metadata>
Created by potrace 1.14, written by Peter Selinger 2001-2017
</metadata>
<g transform="translate(0.000000,290.000000) scale(0.100000,-0.100000)"
fill="#000000" stroke="none">
<path d="M1290 2893 c-191 -29 -341 -73 -464 -135 -411 -207 -691 -578 -783
-1033 -27 -138 -25 -446 5 -580 31 -139 58 -213 122 -341 146 -289 374 -521
643 -653 408 -202 874 -199 1283 7 134 68 231 138 340 246 113 113 172 190
252 331 195 341 241 712 137 1102 -50 187 -122 335 -241 493 -273 362 -695
573 -1138 569 -72 -1 -142 -3 -156 -6z"/>
</g>
</svg>
